<svg width="76" height="77" viewBox="0 0 76 77" fill="none" xmlns="http://www.w3.org/2000/svg">
<path d="M55.4166 13.0554C49.305 13.0554 44.3333 18.0271 44.3333 24.1388C44.3333 29.0598 47.5791 33.1923 52.0283 34.6363C51.566 37.5876 50.2961 40.0196 48.1333 41.9924C41.971 47.6069 30.6311 48.1199 25.3333 48.0313V28.3726C29.8933 26.9983 33.25 22.8088 33.25 17.8054C33.25 11.6938 28.2783 6.72211 22.1666 6.72211C16.055 6.72211 11.0833 11.6938 11.0833 17.8054C11.0833 22.8088 14.44 26.9983 19 28.3726V48.4049C14.44 49.7793 11.0833 53.9688 11.0833 58.9721C11.0833 65.0838 16.055 70.0554 22.1666 70.0554C28.2783 70.0554 33.25 65.0838 33.25 58.9721C33.25 57.2273 32.8066 55.5996 32.0878 54.1303C38.6111 53.5413 46.835 51.7331 52.383 46.6886C55.8568 43.5314 57.8645 39.5193 58.4123 34.7566C63.0641 33.4424 66.5 29.2054 66.5 24.1388C66.5 18.0271 61.5283 13.0554 55.4166 13.0554ZM17.4166 17.8054C17.4166 15.1866 19.5478 13.0554 22.1666 13.0554C24.7855 13.0554 26.9166 15.1866 26.9166 17.8054C26.9166 20.4243 24.7855 22.5554 22.1666 22.5554C19.5478 22.5554 17.4166 20.4243 17.4166 17.8054ZM22.1666 63.7221C19.5478 63.7221 17.4166 61.5909 17.4166 58.9721C17.4182 57.7232 17.9116 56.5252 18.7899 55.6374C19.6682 54.7496 20.8609 54.2434 22.1096 54.2284L22.5213 54.2601C23.1426 54.2834 23.7532 54.4288 24.3183 54.6881C24.8834 54.9474 25.3918 55.3154 25.8147 55.7712C26.2375 56.227 26.5665 56.7616 26.7827 57.3445C26.999 57.9274 27.0983 58.5472 27.075 59.1684C27.0517 59.7897 26.9063 60.4003 26.647 60.9654C26.3877 61.5305 26.0197 62.039 25.5639 62.4618C25.1081 62.8847 24.5735 63.2136 23.9906 63.4298C23.4077 63.6461 22.7879 63.7454 22.1666 63.7221ZM55.4166 28.8888C52.7978 28.8888 50.6666 26.7576 50.6666 24.1388C50.6666 21.5199 52.7978 19.3888 55.4166 19.3888C58.0355 19.3888 60.1666 21.5199 60.1666 24.1388C60.1666 26.7576 58.0355 28.8888 55.4166 28.8888Z" fill="#0077B8"/>
</svg>
